<svg xmlns="http://www.w3.org/2000/svg" id="canvas" viewBox="217.434 246.272 1463.578 187.697"><path d="M 240.67,283.93 C 240.50 285.24, 240.80 286.99, 240.88 290.37 C 240.97 293.75, 241.30 295.82, 241.11 300.84 C 240.91 305.85, 240.40 309.20, 239.89 315.44 C 239.37 321.69, 239.06 325.30, 238.54 332.08 C 238.02 338.86, 237.71 342.61, 237.28 349.35 C 236.84 356.09, 236.41 359.34, 236.36 365.76 C 236.32 372.19, 236.45 375.52, 237.05 381.47 C 237.65 387.41, 238.37 390.47, 239.35 395.48 C 240.34 400.48, 240.93 402.91, 241.97 406.50 C 243.01 410.09, 243.60 411.66, 244.56 413.42 C 245.52 415.17, 246.31 415.73, 246.79 415.29 C 247.27 414.84, 247.43 414.19, 246.95 411.19 C 246.46 408.19, 245.72 406.06, 244.37 400.26 C 243.01 394.47, 242.05 390.54, 240.19 382.23 C 238.34 373.91, 237.14 368.72, 235.09 358.70 C 233.03 348.68, 231.90 342.72, 229.93 332.13 C 227.96 321.54, 226.71 315.56, 225.23 305.73 C 223.76 295.90, 223.28 291.35, 222.54 282.99 C 221.79 274.62, 221.28 269.85, 221.51 263.90 C 221.74 257.96, 222.56 255.92, 223.69 253.25 C 224.82 250.58, 225.11 250.24, 227.15 250.56 C 229.19 250.87, 230.48 252.29, 233.91 254.82 C 237.34 257.34, 239.79 260.03, 244.30 263.19 C 248.81 266.35, 251.65 268.39, 256.45 270.60 C 261.25 272.81, 263.52 273.50, 268.31 274.23 C 273.10 274.96, 275.62 274.81, 280.39 274.26 C 285.17 273.71, 287.71 273.07, 292.18 271.49 C 296.64 269.91, 298.65 268.48, 302.72 266.35 C 306.79 264.21, 309.00 262.94, 312.53 260.83 C 316.06 258.72, 318.32 257.64, 320.38 255.81 C 322.43 253.97, 322.71 252.46, 322.81 251.67 C 322.90 250.88, 322.01 250.52, 320.86 251.86 C 319.72 253.20, 318.66 254.55, 317.07 258.37 C 315.49 262.19, 314.50 264.89, 312.95 270.98 C 311.40 277.07, 310.54 280.91, 309.34 288.80 C 308.14 296.69, 307.38 301.64, 306.94 310.43 C 306.50 319.23, 306.41 324.13, 307.12 332.79 C 307.84 341.46, 308.27 345.93, 310.53 353.77 C 312.79 361.62, 314.25 365.58, 318.43 372.02 C 322.60 378.46, 325.50 381.30, 331.41 385.98 C 337.32 390.66, 340.97 392.62, 347.99 395.41 C 355.01 398.20, 359.05 399.04, 366.50 399.94 C 373.95 400.83, 378.24 400.79, 385.24 399.90 C 392.24 399.01, 395.95 398.02, 401.49 395.48 C 407.02 392.94, 409.23 390.96, 412.91 387.18 C 416.59 383.40, 418.08 380.87, 419.89 376.58 C 421.70 372.28, 422.16 369.61, 421.94 365.70 C 421.73 361.79, 421.11 359.75, 418.81 357.02 C 416.51 354.28, 414.65 353.11, 410.43 352.03 C 406.21 350.96, 403.16 350.85, 397.70 351.63 C 392.24 352.41, 388.83 353.31, 383.13 355.92 C 377.43 358.52, 374.12 360.77, 369.21 364.65 C 364.31 368.53, 361.74 371.04, 358.60 375.30 C 355.46 379.56, 354.42 382.07, 353.50 385.93 C 352.58 389.79, 352.72 391.95, 354.00 394.59 C 355.28 397.24, 356.75 397.99, 359.92 399.14 C 363.09 400.29, 365.60 400.46, 369.86 400.33 C 374.13 400.19, 376.58 399.57, 381.23 398.45 C 385.88 397.33, 388.62 396.36, 393.12 394.73 C 397.62 393.10, 399.65 391.81, 403.74 390.30 C 407.83 388.78, 410.11 388.22, 413.56 387.13 C 417.00 386.05, 418.12 385.28, 420.98 384.87 C 423.84 384.45, 425.34 384.60, 427.85 385.06 C 430.37 385.51, 431.41 386.17, 433.55 387.14 C 435.69 388.12, 436.55 388.73, 438.55 389.91 C 440.55 391.09, 441.48 391.87, 443.55 393.06 C 445.62 394.25, 446.77 394.84, 448.90 395.87 C 451.04 396.90, 452.16 397.46, 454.24 398.21 C 456.32 398.97, 457.46 399.34, 459.30 399.64 C 461.14 399.95, 462.16 400.07, 463.43 399.74 C 464.70 399.42, 465.23 399.20, 465.67 398.03 C 466.10 396.86, 466.16 395.76, 465.62 393.89 C 465.08 392.01, 464.41 390.74, 462.96 388.65 C 461.51 386.56, 460.31 385.67, 458.36 383.44 C 456.41 381.21, 455.18 379.92, 453.21 377.50 C 451.24 375.08, 450.10 373.63, 448.52 371.35 C 446.94 369.07, 446.11 368.10, 445.30 366.10 C 444.49 364.11, 444.11 363.04, 444.49 361.37 C 444.87 359.69, 445.42 358.86, 447.21 357.73 C 449.00 356.61, 450.65 356.39, 453.45 355.75 C 456.24 355.11, 458.35 354.92, 461.19 354.52 C 464.02 354.11, 466.33 354.12, 467.62 353.72 C 468.90 353.33, 468.94 352.93, 467.61 352.56 C 466.28 352.19, 463.92 351.76, 460.96 351.86 C 457.99 351.96, 455.80 352.26, 452.78 353.06 C 449.77 353.85, 447.92 354.26, 445.87 355.83 C 443.82 357.40, 443.09 358.70, 442.55 360.91 C 442.01 363.11, 442.41 364.49, 443.17 366.87 C 443.93 369.25, 444.76 370.35, 446.36 372.81 C 447.96 375.26, 449.21 376.63, 451.18 379.12 C 453.15 381.61, 454.35 383.02, 456.20 385.28 C 458.06 387.54, 459.07 388.51, 460.46 390.42 C 461.85 392.34, 462.40 393.39, 463.15 394.85 C 463.90 396.30, 464.19 397.06, 464.21 397.69 C 464.23 398.33, 464.13 398.13, 463.25 398.03 C 462.38 397.93, 461.47 397.63, 459.84 397.18 C 458.22 396.72, 457.10 396.50, 455.14 395.77 C 453.18 395.03, 452.10 394.50, 450.04 393.51 C 447.97 392.53, 446.86 391.97, 444.81 390.84 C 442.75 389.70, 441.81 389.00, 439.75 387.83 C 437.69 386.67, 436.81 386.01, 434.50 385.00 C 432.20 384.00, 431.00 383.25, 428.23 382.81 C 425.46 382.38, 423.70 382.31, 420.65 382.83 C 417.61 383.34, 416.49 384.23, 412.99 385.41 C 409.49 386.59, 407.23 387.17, 403.15 388.73 C 399.06 390.29, 397.03 391.59, 392.57 393.20 C 388.11 394.81, 385.39 395.71, 380.83 396.76 C 376.28 397.82, 373.87 398.35, 369.81 398.47 C 365.75 398.59, 363.39 398.28, 360.53 397.35 C 357.68 396.43, 356.63 396.06, 355.53 393.85 C 354.42 391.63, 354.18 389.84, 355.02 386.29 C 355.85 382.74, 356.70 380.23, 359.70 376.11 C 362.70 371.98, 365.21 369.45, 370.01 365.65 C 374.80 361.86, 378.10 359.64, 383.68 357.12 C 389.26 354.60, 392.63 353.78, 397.90 353.07 C 403.17 352.36, 406.11 352.58, 410.04 353.58 C 413.96 354.59, 415.47 355.65, 417.53 358.09 C 419.59 360.54, 420.11 362.21, 420.32 365.79 C 420.52 369.38, 420.22 371.92, 418.56 376.03 C 416.90 380.13, 415.52 382.64, 412.01 386.32 C 408.51 390.01, 406.40 391.96, 401.02 394.47 C 395.64 396.98, 391.99 397.98, 385.11 398.88 C 378.23 399.77, 373.97 399.84, 366.61 398.97 C 359.26 398.10, 355.26 397.27, 348.34 394.53 C 341.41 391.79, 337.81 389.86, 331.98 385.26 C 326.15 380.66, 323.29 377.88, 319.17 371.53 C 315.05 365.19, 313.60 361.30, 311.36 353.53 C 309.12 345.77, 308.69 341.33, 307.99 332.72 C 307.29 324.11, 307.38 319.23, 307.87 310.48 C 308.35 301.73, 309.11 296.80, 310.41 288.97 C 311.71 281.15, 312.65 277.32, 314.35 271.36 C 316.06 265.39, 317.37 262.88, 318.94 259.14 C 320.50 255.41, 321.50 254.25, 322.17 252.68 C 322.85 251.12, 322.95 251.04, 322.30 251.31 C 321.65 251.58, 321.08 252.44, 318.93 254.03 C 316.78 255.61, 314.95 257.08, 311.56 259.26 C 308.16 261.44, 305.94 262.77, 301.96 264.93 C 297.98 267.09, 296.01 268.48, 291.66 270.06 C 287.31 271.63, 284.85 272.26, 280.22 272.82 C 275.60 273.38, 273.15 273.55, 268.52 272.83 C 263.89 272.12, 261.73 271.45, 257.08 269.25 C 252.44 267.04, 249.71 264.98, 245.28 261.81 C 240.84 258.64, 238.51 255.92, 234.91 253.41 C 231.31 250.91, 229.77 249.43, 227.28 249.29 C 224.79 249.15, 223.83 249.78, 222.47 252.70 C 221.10 255.62, 220.61 257.80, 220.46 263.87 C 220.30 269.94, 220.90 274.67, 221.70 283.06 C 222.51 291.46, 223.00 296.00, 224.50 305.84 C 225.99 315.68, 227.24 321.66, 229.19 332.27 C 231.15 342.87, 232.28 348.83, 234.27 358.87 C 236.26 368.90, 237.43 374.11, 239.16 382.45 C 240.89 390.79, 241.76 394.75, 242.91 400.58 C 244.06 406.41, 244.21 408.68, 244.93 411.60 C 245.64 414.52, 246.27 414.93, 246.49 415.17 C 246.71 415.41, 246.60 414.62, 246.03 412.79 C 245.46 410.96, 244.73 409.52, 243.66 406.00 C 242.60 402.48, 241.79 400.13, 240.71 395.20 C 239.63 390.26, 238.89 387.23, 238.24 381.34 C 237.60 375.46, 237.45 372.15, 237.48 365.77 C 237.51 359.39, 237.94 356.14, 238.39 349.42 C 238.83 342.70, 239.15 338.94, 239.72 332.17 C 240.29 325.40, 240.64 321.82, 241.25 315.57 C 241.85 309.32, 242.43 305.97, 242.74 300.92 C 243.04 295.87, 242.96 293.71, 242.76 290.29 C 242.56 286.87, 242.14 285.10, 241.72 283.83 C 241.31 282.55, 240.84 282.62, 240.67 283.93" style="stroke: black; fill: black;"/><path d="M 493.60,347.18 C 493.26 347.47, 492.96 347.62, 492.76 348.74 C 492.56 349.86, 492.25 350.77, 492.61 352.79 C 492.98 354.81, 493.40 356.01, 494.59 358.84 C 495.78 361.67, 496.53 363.59, 498.54 366.95 C 500.55 370.31, 501.79 372.54, 504.65 375.62 C 507.52 378.71, 509.33 380.15, 512.87 382.37 C 516.42 384.58, 518.42 385.64, 522.39 386.71 C 526.36 387.77, 528.70 388.02, 532.72 387.69 C 536.73 387.36, 538.91 386.53, 542.47 385.08 C 546.03 383.62, 547.85 382.49, 550.52 380.40 C 553.20 378.32, 554.32 377.03, 555.84 374.65 C 557.35 372.28, 557.62 370.62, 558.11 368.52 C 558.59 366.42, 558.40 365.17, 558.25 364.16 C 558.11 363.16, 557.58 363.23, 557.39 363.52 C 557.21 363.80, 557.04 364.24, 557.33 365.59 C 557.62 366.93, 557.77 368.06, 558.84 370.24 C 559.91 372.42, 560.44 374.06, 562.69 376.48 C 564.94 378.91, 566.86 380.28, 570.10 382.38 C 573.33 384.48, 575.20 385.41, 578.87 387.00 C 582.54 388.59, 584.56 389.60, 588.45 390.35 C 592.33 391.09, 594.57 391.12, 598.31 390.73 C 602.04 390.34, 603.95 389.79, 607.11 388.38 C 610.28 386.97, 611.98 386.14, 614.13 383.68 C 616.28 381.22, 617.35 379.40, 617.88 376.08 C 618.40 372.76, 618.10 370.48, 616.75 367.09 C 615.39 363.71, 614.01 361.96, 611.11 359.15 C 608.20 356.35, 606.02 354.83, 602.23 353.07 C 598.44 351.31, 595.82 350.75, 592.15 350.36 C 588.48 349.97, 586.27 350.44, 583.87 351.14 C 581.47 351.83, 580.88 352.90, 580.14 353.83 C 579.41 354.75, 580.08 355.37, 580.18 355.76 C 580.27 356.16, 580.47 356.03, 580.62 355.80 C 580.76 355.58, 580.16 355.13, 580.91 354.63 C 581.67 354.13, 582.20 353.72, 584.40 353.29 C 586.60 352.86, 588.53 352.18, 591.94 352.49 C 595.34 352.79, 597.86 353.21, 601.42 354.83 C 604.99 356.44, 607.07 357.94, 609.76 360.55 C 612.45 363.15, 613.65 364.80, 614.86 367.84 C 616.07 370.88, 616.26 372.86, 615.80 375.75 C 615.33 378.64, 614.46 380.14, 612.56 382.29 C 610.65 384.45, 609.18 385.23, 606.28 386.53 C 603.39 387.83, 601.59 388.40, 598.10 388.79 C 594.60 389.18, 592.49 389.20, 588.81 388.48 C 585.12 387.76, 583.17 386.78, 579.67 385.20 C 576.18 383.61, 574.32 382.66, 571.34 380.55 C 568.35 378.45, 566.69 377.02, 564.76 374.67 C 562.83 372.32, 562.74 370.80, 561.68 368.79 C 560.62 366.79, 560.23 365.79, 559.45 364.67 C 558.67 363.54, 558.32 363.33, 557.78 363.19 C 557.23 363.05, 557.13 363.02, 556.74 363.97 C 556.34 364.91, 556.37 366.02, 555.79 367.91 C 555.22 369.80, 555.17 371.25, 553.85 373.42 C 552.54 375.59, 551.64 376.78, 549.21 378.75 C 546.79 380.73, 545.05 381.87, 541.72 383.30 C 538.39 384.73, 536.34 385.54, 532.56 385.88 C 528.79 386.23, 526.59 386.01, 522.85 385.01 C 519.10 384.00, 517.18 382.99, 513.83 380.85 C 510.48 378.71, 508.76 377.31, 506.10 374.31 C 503.43 371.31, 502.27 369.14, 500.52 365.83 C 498.76 362.52, 498.33 360.50, 497.31 357.76 C 496.29 355.03, 495.92 353.96, 495.43 352.16 C 494.93 350.36, 495.03 349.71, 494.83 348.74 C 494.64 347.77, 494.70 347.62, 494.45 347.31 C 494.20 347.00, 493.94 346.89, 493.60 347.18" style="stroke: black; fill: black;"/><path d="M 665.74,326.43 C 665.59 326.47, 665.98 326.02, 665.43 326.52 C 664.88 327.02, 664.44 327.12, 663.00 328.92 C 661.55 330.73, 660.68 332.23, 658.21 335.53 C 655.74 338.84, 653.63 341.27, 650.65 345.43 C 647.66 349.59, 645.69 352.21, 643.29 356.33 C 640.89 360.44, 639.63 362.70, 638.63 366.03 C 637.63 369.35, 637.37 371.00, 638.30 372.97 C 639.23 374.93, 640.54 375.54, 643.28 375.85 C 646.02 376.15, 648.19 375.63, 652.00 374.51 C 655.81 373.39, 658.22 372.38, 662.32 370.23 C 666.42 368.08, 668.91 366.60, 672.51 363.76 C 676.12 360.92, 678.02 359.09, 680.35 356.02 C 682.67 352.96, 683.56 351.09, 684.13 348.42 C 684.71 345.75, 684.13 344.21, 683.23 342.69 C 682.33 341.17, 681.07 340.66, 679.62 340.82 C 678.18 340.98, 676.98 341.71, 676.02 343.49 C 675.07 345.27, 674.31 346.94, 674.85 349.70 C 675.39 352.46, 676.43 354.48, 678.70 357.27 C 680.97 360.06, 682.81 361.36, 686.21 363.64 C 689.62 365.93, 691.53 366.94, 695.71 368.70 C 699.90 370.46, 702.73 371.43, 707.14 372.44 C 711.55 373.45, 713.69 373.61, 717.76 373.74 C 721.83 373.87, 723.66 373.71, 727.47 373.09 C 731.29 372.47, 733.33 371.91, 736.85 370.62 C 740.37 369.34, 742.02 368.24, 745.06 366.68 C 748.11 365.12, 749.71 364.23, 752.07 362.81 C 754.43 361.40, 755.33 360.48, 756.86 359.60 C 758.39 358.73, 758.62 358.38, 759.71 358.43 C 760.80 358.48, 761.19 358.82, 762.31 359.85 C 763.42 360.88, 763.88 361.91, 765.29 363.59 C 766.70 365.27, 767.43 366.38, 769.36 368.24 C 771.30 370.10, 772.89 371.28, 774.97 372.88 C 777.04 374.47, 778.04 375.04, 779.73 376.22 C 781.41 377.40, 781.85 377.92, 783.39 378.78 C 784.92 379.65, 785.84 380.01, 787.40 380.53 C 788.96 381.05, 789.58 381.37, 791.18 381.38 C 792.78 381.38, 793.64 381.28, 795.41 380.56 C 797.18 379.84, 798.22 379.08, 800.03 377.76 C 801.85 376.44, 802.69 375.38, 804.48 373.97 C 806.27 372.55, 806.80 371.64, 808.98 370.68 C 811.17 369.72, 812.54 369.48, 815.38 369.16 C 818.23 368.83, 819.74 368.61, 823.22 369.05 C 826.70 369.49, 828.63 370.04, 832.80 371.37 C 836.96 372.70, 839.59 373.52, 844.07 375.69 C 848.56 377.87, 850.81 379.45, 855.22 382.22 C 859.63 385.00, 862.09 386.76, 866.13 389.56 C 870.16 392.36, 872.50 394.06, 875.40 396.21 C 878.31 398.37, 879.50 399.64, 880.66 400.34 C 881.83 401.04, 882.06 400.81, 881.21 399.72 C 880.36 398.64, 879.23 397.23, 876.39 394.94 C 873.56 392.64, 871.10 391.05, 867.03 388.26 C 862.95 385.46, 860.47 383.75, 856.02 380.96 C 851.57 378.16, 849.30 376.53, 844.77 374.27 C 840.24 372.02, 837.60 371.13, 833.35 369.68 C 829.10 368.22, 827.16 367.59, 823.52 367.00 C 819.88 366.41, 818.25 366.46, 815.14 366.73 C 812.03 367.01, 810.45 367.34, 807.99 368.35 C 805.53 369.37, 804.77 370.39, 802.83 371.81 C 800.89 373.22, 800.00 374.14, 798.30 375.44 C 796.61 376.73, 795.78 377.53, 794.36 378.28 C 792.93 379.03, 792.42 379.18, 791.17 379.20 C 789.93 379.22, 789.47 378.84, 788.13 378.38 C 786.78 377.92, 785.85 377.71, 784.46 376.90 C 783.06 376.10, 782.68 375.61, 781.15 374.35 C 779.62 373.09, 778.74 372.28, 776.81 370.61 C 774.88 368.95, 773.38 367.80, 771.49 366.01 C 769.60 364.23, 768.93 363.28, 767.36 361.70 C 765.80 360.11, 765.17 359.07, 763.65 358.09 C 762.14 357.11, 761.31 356.85, 759.77 356.79 C 758.24 356.74, 757.76 357.04, 755.97 357.82 C 754.18 358.60, 753.20 359.30, 750.81 360.69 C 748.43 362.09, 746.98 363.17, 744.06 364.79 C 741.13 366.42, 739.55 367.51, 736.17 368.82 C 732.80 370.13, 730.85 370.70, 727.18 371.34 C 723.51 371.98, 721.74 372.14, 717.81 372.02 C 713.88 371.91, 711.81 371.76, 707.53 370.77 C 703.25 369.77, 700.45 368.81, 696.41 367.06 C 692.37 365.31, 690.50 364.28, 687.34 362.02 C 684.17 359.76, 682.55 358.35, 680.59 355.78 C 678.64 353.20, 678.07 351.42, 677.55 349.14 C 677.04 346.86, 677.55 345.77, 678.01 344.38 C 678.47 342.99, 679.08 342.39, 679.85 342.19 C 680.62 342.00, 681.40 342.24, 681.85 343.39 C 682.30 344.54, 682.71 345.64, 682.10 347.94 C 681.50 350.23, 680.96 351.99, 678.82 354.88 C 676.68 357.76, 674.88 359.62, 671.41 362.35 C 667.94 365.08, 665.45 366.50, 661.45 368.53 C 657.45 370.56, 655.01 371.43, 651.41 372.50 C 647.80 373.56, 645.78 373.89, 643.41 373.87 C 641.04 373.85, 640.16 373.86, 639.56 372.41 C 638.97 370.95, 639.38 369.64, 640.43 366.61 C 641.48 363.57, 642.47 361.23, 644.82 357.22 C 647.16 353.21, 649.11 350.59, 652.16 346.54 C 655.21 342.50, 657.43 340.18, 660.07 337.01 C 662.71 333.84, 664.03 332.65, 665.38 330.70 C 666.73 328.74, 666.66 328.11, 666.81 327.22 C 666.97 326.34, 666.38 326.44, 666.17 326.29 C 665.95 326.13, 665.89 326.38, 665.74 326.43" style="stroke: black; fill: black;"/><path d="M 989.37,251.12 C 988.47 251.03, 987.34 251.00, 985.15 251.68 C 982.96 252.36, 981.16 252.84, 978.44 254.52 C 975.71 256.20, 973.74 257.23, 971.52 260.07 C 969.31 262.92, 967.98 264.68, 967.35 268.75 C 966.72 272.83, 966.63 275.08, 968.38 280.44 C 970.12 285.81, 971.95 288.94, 976.07 295.59 C 980.19 302.25, 983.08 306.11, 988.98 313.71 C 994.88 321.32, 998.82 325.69, 1005.57 333.62 C 1012.33 341.55, 1016.63 345.95, 1022.75 353.34 C 1028.87 360.72, 1031.86 364.15, 1036.18 370.56 C 1040.49 376.97, 1042.43 379.86, 1044.33 385.39 C 1046.22 390.91, 1046.66 393.45, 1045.66 398.19 C 1044.65 402.94, 1043.23 405.08, 1039.31 409.13 C 1035.39 413.18, 1032.23 415.17, 1026.06 418.45 C 1019.88 421.73, 1015.71 423.31, 1008.44 425.51 C 1001.18 427.72, 996.86 428.86, 989.73 429.49 C 982.60 430.11, 978.59 430.22, 972.80 428.65 C 967.00 427.08, 964.34 425.48, 960.76 421.66 C 957.18 417.83, 955.95 414.94, 954.88 409.53 C 953.81 404.11, 954.16 400.53, 955.42 394.59 C 956.68 388.65, 958.11 385.19, 961.17 379.83 C 964.23 374.47, 966.39 372.21, 970.72 367.80 C 975.06 363.39, 978.36 361.09, 982.83 357.77 C 987.31 354.45, 989.61 353.23, 993.10 351.21 C 996.59 349.18, 998.93 348.50, 1000.30 347.63 C 1001.67 346.76, 1001.52 346.38, 999.94 346.85 C 998.37 347.32, 996.00 348.03, 992.42 350.00 C 988.84 351.97, 986.55 353.32, 982.04 356.71 C 977.53 360.10, 974.25 362.46, 969.87 366.96 C 965.49 371.47, 963.28 373.77, 960.15 379.25 C 957.03 384.72, 955.53 388.24, 954.25 394.34 C 952.97 400.45, 952.59 404.14, 953.73 409.76 C 954.87 415.37, 956.18 418.44, 959.94 422.43 C 963.70 426.41, 966.54 428.07, 972.52 429.68 C 978.49 431.30, 982.58 431.16, 989.82 430.52 C 997.07 429.89, 1001.40 428.74, 1008.75 426.52 C 1016.10 424.31, 1020.30 422.75, 1026.58 419.43 C 1032.85 416.11, 1036.10 414.12, 1040.14 409.92 C 1044.17 405.72, 1045.71 403.39, 1046.73 398.42 C 1047.76 393.45, 1047.23 390.73, 1045.26 385.07 C 1043.29 379.40, 1041.27 376.52, 1036.89 370.07 C 1032.51 363.63, 1029.50 360.22, 1023.36 352.83 C 1017.22 345.44, 1012.92 341.04, 1006.18 333.11 C 999.44 325.17, 995.51 320.79, 989.67 313.18 C 983.83 305.56, 980.97 301.67, 976.96 295.05 C 972.95 288.42, 971.22 285.25, 969.64 280.05 C 968.05 274.85, 968.30 272.75, 969.02 269.04 C 969.74 265.33, 971.07 263.94, 973.24 261.50 C 975.41 259.06, 977.29 258.37, 979.85 256.85 C 982.40 255.34, 984.07 254.87, 986.03 253.92 C 988.00 252.97, 989.00 252.67, 989.67 252.11 C 990.34 251.55, 990.28 251.20, 989.37 251.12" style="stroke: black; fill: black;"/><path d="M 1049.44,286.98 C 1049.81 287.95, 1050.70 288.81, 1052.09 291.17 C 1053.47 293.53, 1054.69 294.81, 1056.36 298.76 C 1058.03 302.72, 1058.94 305.46, 1060.44 310.94 C 1061.94 316.41, 1062.47 319.80, 1063.85 326.14 C 1065.22 332.48, 1065.63 336.25, 1067.32 342.65 C 1069.00 349.04, 1069.91 352.51, 1072.27 358.11 C 1074.62 363.72, 1076.31 366.39, 1079.10 370.67 C 1081.88 374.96, 1083.51 376.73, 1086.19 379.54 C 1088.86 382.35, 1090.05 383.49, 1092.47 384.72 C 1094.88 385.96, 1096.10 385.92, 1098.26 385.73 C 1100.42 385.53, 1101.33 384.82, 1103.28 383.75 C 1105.23 382.68, 1105.99 381.65, 1108.02 380.38 C 1110.04 379.12, 1111.13 378.13, 1113.40 377.42 C 1115.67 376.70, 1116.81 376.68, 1119.37 376.81 C 1121.93 376.94, 1123.12 377.32, 1126.21 378.08 C 1129.30 378.84, 1131.15 379.44, 1134.84 380.61 C 1138.53 381.79, 1140.39 382.80, 1144.66 383.95 C 1148.94 385.10, 1151.13 385.68, 1156.20 386.36 C 1161.26 387.03, 1163.90 387.27, 1170.00 387.33 C 1176.09 387.38, 1180.05 387.30, 1186.67 386.64 C 1193.29 385.99, 1197.18 385.52, 1203.11 384.06 C 1209.05 382.61, 1211.58 381.55, 1216.36 379.38 C 1221.14 377.22, 1223.74 376.00, 1227.02 373.23 C 1230.29 370.46, 1231.63 368.63, 1232.73 365.53 C 1233.84 362.44, 1233.63 360.62, 1232.53 357.76 C 1231.43 354.90, 1230.08 353.17, 1227.23 351.24 C 1224.38 349.31, 1222.26 348.61, 1218.27 348.09 C 1214.29 347.58, 1211.47 347.75, 1207.30 348.65 C 1203.12 349.56, 1200.71 350.42, 1197.39 352.61 C 1194.07 354.81, 1192.36 356.44, 1190.69 359.64 C 1189.02 362.84, 1188.42 365.04, 1189.04 368.60 C 1189.67 372.16, 1190.87 374.14, 1193.82 377.44 C 1196.76 380.74, 1198.90 382.51, 1203.75 385.10 C 1208.59 387.69, 1211.72 388.97, 1218.03 390.38 C 1224.34 391.79, 1228.34 391.97, 1235.30 392.13 C 1242.25 392.28, 1246.17 392.25, 1252.80 391.16 C 1259.44 390.06, 1262.72 389.21, 1268.46 386.64 C 1274.20 384.08, 1277.31 381.73, 1281.52 378.33 C 1285.74 374.94, 1287.13 372.90, 1289.52 369.65 C 1291.91 366.40, 1292.85 363.70, 1293.49 362.10 C 1294.12 360.50, 1293.70 360.30, 1292.69 361.65 C 1291.67 362.99, 1290.80 365.68, 1288.41 368.82 C 1286.01 371.95, 1284.79 373.97, 1280.70 377.33 C 1276.62 380.68, 1273.60 383.04, 1267.99 385.59 C 1262.37 388.14, 1259.16 388.99, 1252.62 390.07 C 1246.09 391.14, 1242.19 391.16, 1235.32 390.98 C 1228.46 390.80, 1224.49 390.59, 1218.31 389.16 C 1212.13 387.73, 1209.08 386.40, 1204.43 383.84 C 1199.77 381.28, 1197.77 379.46, 1195.04 376.35 C 1192.32 373.24, 1191.35 371.46, 1190.81 368.29 C 1190.27 365.13, 1190.81 363.33, 1192.33 360.51 C 1193.85 357.69, 1195.35 356.18, 1198.42 354.18 C 1201.50 352.18, 1203.78 351.34, 1207.70 350.52 C 1211.61 349.69, 1214.34 349.59, 1218.01 350.07 C 1221.69 350.56, 1223.56 351.26, 1226.09 352.94 C 1228.62 354.62, 1229.70 356.09, 1230.69 358.49 C 1231.68 360.89, 1231.98 362.23, 1231.05 364.94 C 1230.11 367.66, 1229.08 369.42, 1226.03 372.07 C 1222.98 374.72, 1220.45 376.03, 1215.81 378.19 C 1211.17 380.35, 1208.67 381.43, 1202.82 382.87 C 1196.97 384.32, 1193.11 384.78, 1186.55 385.41 C 1179.99 386.05, 1176.04 386.13, 1170.01 386.03 C 1163.98 385.93, 1161.38 385.66, 1156.40 384.91 C 1151.42 384.17, 1149.32 383.53, 1145.13 382.29 C 1140.95 381.05, 1139.14 379.99, 1135.47 378.71 C 1131.80 377.43, 1129.97 376.76, 1126.78 375.89 C 1123.59 375.02, 1122.35 374.54, 1119.52 374.35 C 1116.69 374.15, 1115.24 374.15, 1112.64 374.90 C 1110.05 375.66, 1108.66 376.73, 1106.56 378.11 C 1104.45 379.50, 1103.81 380.67, 1102.11 381.83 C 1100.41 383.00, 1099.82 383.70, 1098.06 383.94 C 1096.30 384.19, 1095.47 384.16, 1093.33 383.05 C 1091.19 381.94, 1089.98 381.02, 1087.36 378.40 C 1084.74 375.77, 1083.02 374.08, 1080.23 369.93 C 1077.43 365.77, 1075.73 363.16, 1073.38 357.64 C 1071.03 352.13, 1070.12 348.70, 1068.46 342.35 C 1066.80 336.00, 1066.41 332.24, 1065.09 325.88 C 1063.78 319.52, 1063.30 316.12, 1061.90 310.55 C 1060.50 304.99, 1059.69 302.17, 1058.10 298.06 C 1056.52 293.95, 1055.54 292.33, 1053.97 289.99 C 1052.40 287.64, 1051.14 286.93, 1050.23 286.33 C 1049.33 285.73, 1049.07 286.01, 1049.44 286.98" style="stroke: black; fill: black;"/><path d="M 1258.23,259.86 C 1258.58 261.63, 1259.07 263.76, 1260.94 268.40 C 1262.81 273.04, 1264.32 276.26, 1267.60 283.06 C 1270.88 289.87, 1273.30 294.41, 1277.33 302.42 C 1281.35 310.42, 1283.93 315.03, 1287.72 323.10 C 1291.50 331.17, 1293.34 335.23, 1296.27 342.78 C 1299.19 350.32, 1300.05 354.20, 1302.35 360.80 C 1304.65 367.41, 1305.57 370.55, 1307.77 375.80 C 1309.96 381.04, 1310.87 383.46, 1313.32 387.03 C 1315.76 390.61, 1317.19 392.24, 1320.00 393.65 C 1322.81 395.06, 1324.49 394.93, 1327.36 394.07 C 1330.23 393.21, 1331.53 391.79, 1334.36 389.37 C 1337.20 386.94, 1338.62 384.99, 1341.54 381.95 C 1344.46 378.91, 1345.96 376.79, 1348.94 374.17 C 1351.92 371.55, 1353.56 370.46, 1356.45 368.84 C 1359.34 367.22, 1360.57 366.56, 1363.40 366.07 C 1366.24 365.58, 1367.74 365.92, 1370.64 366.39 C 1373.54 366.86, 1375.07 367.42, 1377.92 368.44 C 1380.77 369.45, 1381.95 369.98, 1384.90 371.48 C 1387.85 372.98, 1389.65 374.35, 1392.68 375.91 C 1395.71 377.48, 1397.51 378.29, 1400.04 379.29 C 1402.58 380.30, 1404.23 380.78, 1405.37 380.94 C 1406.51 381.10, 1406.63 380.83, 1405.75 380.08 C 1404.88 379.33, 1403.40 378.46, 1401.00 377.20 C 1398.60 375.95, 1396.78 375.36, 1393.76 373.82 C 1390.74 372.28, 1388.92 370.98, 1385.90 369.48 C 1382.88 367.98, 1381.65 367.38, 1378.67 366.32 C 1375.69 365.26, 1374.11 364.65, 1370.98 364.19 C 1367.85 363.74, 1366.13 363.45, 1363.03 364.04 C 1359.94 364.63, 1358.57 365.40, 1355.49 367.14 C 1352.42 368.87, 1350.74 370.03, 1347.67 372.71 C 1344.59 375.40, 1343.03 377.54, 1340.11 380.57 C 1337.19 383.60, 1335.72 385.52, 1333.05 387.85 C 1330.39 390.18, 1329.23 391.38, 1326.77 392.23 C 1324.31 393.08, 1323.22 393.31, 1320.76 392.11 C 1318.30 390.91, 1316.87 389.57, 1314.48 386.22 C 1312.10 382.87, 1311.07 380.49, 1308.83 375.34 C 1306.58 370.20, 1305.61 367.06, 1303.27 360.48 C 1300.92 353.90, 1300.04 350.01, 1297.09 342.45 C 1294.14 334.90, 1292.29 330.82, 1288.52 322.72 C 1284.74 314.63, 1282.18 310.01, 1278.20 301.98 C 1274.23 293.95, 1271.84 289.39, 1268.63 282.57 C 1265.41 275.76, 1264.02 272.52, 1262.13 267.91 C 1260.25 263.30, 1259.97 261.15, 1259.19 259.54 C 1258.41 257.92, 1257.88 258.08, 1258.23 259.86" style="stroke: black; fill: black;"/><path d="M 1452.79,362.21 C 1451.92 361.81, 1450.79 361.44, 1448.36 361.26 C 1445.93 361.09, 1444.16 360.56, 1440.62 361.33 C 1437.09 362.09, 1434.32 362.90, 1430.69 365.09 C 1427.05 367.28, 1424.87 369.32, 1422.45 372.27 C 1420.04 375.23, 1419.15 376.99, 1418.61 379.86 C 1418.06 382.73, 1418.34 384.42, 1419.73 386.64 C 1421.11 388.86, 1422.66 390.09, 1425.53 390.96 C 1428.40 391.84, 1430.63 391.53, 1434.08 391.01 C 1437.53 390.49, 1439.21 389.71, 1442.76 388.35 C 1446.30 386.99, 1448.39 385.89, 1451.81 384.22 C 1455.23 382.54, 1457.24 381.15, 1459.85 379.97 C 1462.46 378.79, 1463.13 378.16, 1464.86 378.33 C 1466.60 378.50, 1466.95 379.34, 1468.51 380.80 C 1470.07 382.27, 1470.75 383.52, 1472.67 385.67 C 1474.59 387.82, 1475.82 389.51, 1478.10 391.55 C 1480.38 393.59, 1481.84 394.61, 1484.07 395.84 C 1486.31 397.08, 1488.14 397.52, 1489.27 397.72 C 1490.40 397.91, 1490.51 397.59, 1489.73 396.82 C 1488.94 396.04, 1487.30 395.32, 1485.36 393.86 C 1483.41 392.39, 1482.13 391.49, 1480.00 389.48 C 1477.87 387.46, 1476.73 385.83, 1474.70 383.77 C 1472.67 381.71, 1471.80 380.61, 1469.87 379.17 C 1467.94 377.74, 1467.24 376.87, 1465.06 376.60 C 1462.87 376.33, 1461.78 376.69, 1458.94 377.83 C 1456.10 378.97, 1454.24 380.58, 1450.85 382.29 C 1447.46 384.00, 1445.43 385.08, 1442.01 386.37 C 1438.58 387.67, 1436.91 388.30, 1433.74 388.76 C 1430.58 389.22, 1428.66 389.31, 1426.17 388.68 C 1423.69 388.05, 1422.42 387.30, 1421.32 385.62 C 1420.21 383.94, 1420.09 382.69, 1420.64 380.28 C 1421.20 377.88, 1421.85 376.28, 1424.08 373.62 C 1426.31 370.96, 1428.40 368.97, 1431.81 366.98 C 1435.22 365.00, 1437.82 364.38, 1441.13 363.69 C 1444.43 363.00, 1446.00 363.64, 1448.32 363.55 C 1450.64 363.46, 1451.82 363.52, 1452.72 363.25 C 1453.61 362.98, 1453.66 362.60, 1452.79 362.21" style="stroke: black; fill: black;"/><path d="M 1522.95,302.70 C 1522.93 304.51, 1523.27 307.20, 1523.94 311.64 C 1524.60 316.07, 1525.06 318.93, 1526.28 324.88 C 1527.50 330.83, 1528.50 334.79, 1530.02 341.37 C 1531.54 347.94, 1532.53 351.56, 1533.87 357.76 C 1535.22 363.96, 1535.77 367.11, 1536.73 372.36 C 1537.69 377.61, 1538.10 380.30, 1538.68 384.00 C 1539.26 387.70, 1539.58 389.22, 1539.64 390.86 C 1539.71 392.49, 1539.52 392.51, 1539.02 392.18 C 1538.52 391.84, 1538.16 391.13, 1537.15 389.18 C 1536.13 387.24, 1535.16 385.25, 1533.94 382.44 C 1532.73 379.63, 1531.60 377.77, 1531.07 375.12 C 1530.53 372.47, 1530.30 371.33, 1531.27 369.18 C 1532.25 367.04, 1533.09 366.00, 1535.95 364.41 C 1538.80 362.83, 1541.03 362.22, 1545.55 361.26 C 1550.07 360.30, 1553.16 360.07, 1558.55 359.59 C 1563.94 359.11, 1566.90 358.89, 1572.49 358.86 C 1578.08 358.83, 1580.88 358.88, 1586.50 359.45 C 1592.12 360.01, 1595.33 360.61, 1600.60 361.69 C 1605.88 362.78, 1608.44 363.34, 1612.86 364.86 C 1617.29 366.38, 1619.66 367.71, 1622.74 369.30 C 1625.81 370.89, 1626.84 371.60, 1628.24 372.82 C 1629.64 374.03, 1629.74 374.38, 1629.74 375.39 C 1629.73 376.40, 1628.96 376.84, 1628.20 377.87 C 1627.44 378.89, 1627.05 379.61, 1625.93 380.51 C 1624.81 381.40, 1624.15 381.53, 1622.59 382.34 C 1621.02 383.15, 1620.03 383.65, 1618.10 384.56 C 1616.17 385.48, 1614.84 385.74, 1612.95 386.93 C 1611.05 388.11, 1609.72 388.84, 1608.62 390.50 C 1607.53 392.16, 1607.20 393.30, 1607.46 395.24 C 1607.72 397.18, 1608.29 398.42, 1609.91 400.20 C 1611.53 401.98, 1612.94 402.90, 1615.55 404.13 C 1618.16 405.36, 1619.90 405.77, 1622.96 406.37 C 1626.03 406.96, 1627.68 407.28, 1630.86 407.09 C 1634.05 406.91, 1635.68 406.53, 1638.87 405.44 C 1642.07 404.34, 1643.87 403.18, 1646.82 401.63 C 1649.78 400.08, 1651.43 399.05, 1653.65 397.66 C 1655.88 396.28, 1656.50 395.34, 1657.95 394.72 C 1659.40 394.11, 1659.76 393.90, 1660.89 394.60 C 1662.01 395.30, 1662.29 396.37, 1663.57 398.23 C 1664.85 400.08, 1665.55 401.60, 1667.29 403.86 C 1669.03 406.12, 1670.34 407.74, 1672.28 409.52 C 1674.22 411.30, 1675.90 412.27, 1676.99 412.75 C 1678.07 413.24, 1678.26 412.97, 1677.72 411.96 C 1677.17 410.95, 1675.84 409.69, 1674.25 407.69 C 1672.67 405.68, 1671.52 404.14, 1669.80 401.92 C 1668.08 399.69, 1667.27 398.35, 1665.64 396.57 C 1664.02 394.79, 1663.34 393.76, 1661.69 393.04 C 1660.03 392.32, 1659.23 392.49, 1657.37 392.98 C 1655.50 393.46, 1654.70 394.17, 1652.36 395.48 C 1650.02 396.78, 1648.53 397.95, 1645.69 399.52 C 1642.84 401.08, 1641.12 402.24, 1638.13 403.28 C 1635.14 404.33, 1633.68 404.63, 1630.75 404.73 C 1627.83 404.84, 1626.30 404.44, 1623.51 403.80 C 1620.71 403.15, 1619.13 402.58, 1616.77 401.51 C 1614.40 400.43, 1613.15 399.75, 1611.69 398.43 C 1610.23 397.12, 1609.72 396.24, 1609.47 394.92 C 1609.21 393.61, 1609.44 392.96, 1610.42 391.85 C 1611.40 390.74, 1612.58 390.33, 1614.37 389.39 C 1616.16 388.45, 1617.45 388.09, 1619.35 387.15 C 1621.25 386.21, 1622.23 385.64, 1623.87 384.69 C 1625.52 383.74, 1626.35 383.54, 1627.57 382.40 C 1628.80 381.25, 1629.29 380.37, 1630.01 378.96 C 1630.72 377.54, 1631.25 376.80, 1631.13 375.32 C 1631.02 373.85, 1630.93 373.10, 1629.42 371.57 C 1627.91 370.04, 1626.80 369.28, 1623.58 367.65 C 1620.37 366.02, 1617.88 364.88, 1613.34 363.42 C 1608.80 361.96, 1606.21 361.42, 1600.87 360.37 C 1595.53 359.31, 1592.31 358.72, 1586.63 358.14 C 1580.95 357.57, 1578.13 357.51, 1572.49 357.50 C 1566.84 357.49, 1563.88 357.67, 1558.43 358.08 C 1552.97 358.49, 1549.89 358.63, 1545.20 359.56 C 1540.51 360.48, 1538.16 360.95, 1535.00 362.70 C 1531.84 364.44, 1530.71 365.71, 1529.40 368.27 C 1528.09 370.84, 1528.10 372.44, 1528.44 375.52 C 1528.78 378.60, 1529.76 380.67, 1531.08 383.69 C 1532.40 386.70, 1533.51 388.73, 1535.05 390.59 C 1536.60 392.46, 1537.62 392.94, 1538.82 393.01 C 1540.02 393.08, 1540.73 392.81, 1541.04 390.95 C 1541.35 389.10, 1540.96 387.50, 1540.36 383.74 C 1539.75 379.97, 1539.10 377.36, 1538.04 372.11 C 1536.98 366.86, 1536.41 363.70, 1535.06 357.50 C 1533.70 351.29, 1532.74 347.66, 1531.25 341.09 C 1529.77 334.51, 1528.80 330.54, 1527.63 324.61 C 1526.46 318.67, 1526.12 315.82, 1525.40 311.41 C 1524.69 307.00, 1524.53 304.30, 1524.04 302.55 C 1523.55 300.81, 1522.97 300.88, 1522.95 302.70" style="stroke: black; fill: black;"/></svg>